{"title":"The Hit List 2011 DVDrip English Klam","uid":6675774,"size":1145362315,"categoryP":"video","categoryS":"movies","magnet":"?xt=urn:btih:8586862f9a6be54329c05c68611c24a3f77275fc&amp;dn=The+Hit+List+2011+DVDrip+English+Klam&amp;tr=udp%3A%2F%2Ftracker.openbittorrent.com%3A80&amp;tr=udp%3A%2F%2Fopen.demonii.com%3A1337&amp;tr=udp%3A%2F%2Ftracker.coppersurfer.tk%3A6969&amp;tr=udp%3A%2F%2Fexodus.desync.com%3A6969","seeders":0,"leechers":0,"uploader":"Klambake","files":-1,"time":1316020721,"description":"With: Cuba Gooding Jr., Cole Hauser en Jonathan LaPaglia\n\nAllan Campbell (Cole Hauser) heeft een slechte dag achter de rug. Hij gaat naar een bar om zijn zijn zorgen te verdrinken. In een dronken bui raakt hij aan de praat met een mysterieuze man die zichzelf Jonas noemt (Cuba Gooding Jr.). Na een tijdje geeft Jonas aan mensen te vermoorden voor geld en vraagt Allan vijf mensen op te schrijven die hij dood zou willen hebben. Allan ziet er de lol wel van in en schrijft de namen op om aan het spelletje mee te doen. Wanneer de doden zich op beginnen te stapelen en rechercheur Neil McKay (Jonathan LaPaglia) Allan op het spoor is, blijkt het niet om een grap te gaan. Hij zal nu alles in het werk moeten stellen om de moorden te stoppen.\n\nA disgruntled man creates a hit list with a stranger during a drunken night out and must then race to try to save those he marked for extermination as the bodies begin to pile up and all fingers point to him. \n\n------------------ Dutch Friends ------------------\nYou can find my Friends at: http://www.Film-Test.nl \n------ They got my dutchs subs ---- and more ------\n\nGeneral:\n\nComplete name                    : The Hit List\\The Hit List.avi\nFormat                           : AVI\nFormat/Info                      : Audio Video Interleave\nFile size                        : 1.07 GiB\nDuration                         : 1h 26mn\nOverall bit rate                 : 1 766 Kbps\n\nVideo:\n\nFormat                           : MPEG-4 Visual\nFormat profile                   : Simple@L3\nFormat settings, BVOP            : No\nFormat settings, QPel            : No\nFormat settings, GMC             : No warppoints\nFormat settings, Matrix          : Default (H.263)\nCodec ID                         : XVID\nCodec ID/Hint                    : XviD\nDuration                         : 1h 26mn\nBit rate                         : 1 307 Kbps\nWidth                            : 704 pixels\nHeight                           : 396 pixels\nDisplay aspect ratio             : 16:9\nFrame rate                       : 25.000 fps\nColor space                      : YUV\nChroma subsampling               : 4:2:0\nBit depth                        : 8 bits\nScan type                        : Progressive\nBits/(Pixel*Frame)               : 0.188\nStream size                      : 808 MiB (74%)\nWriting library                  : XviD 1.1.2 (UTC 2006-11-01)\n\nAudio:\n\nFormat                           : AC-3\nFormat/Info                      : Audio Coding 3\nMode extension                   : CM (complete main)\nCodec ID                         : 2000\nDuration                         : 1h 26mn\nBit rate mode                    : Constant\nBit rate                         : 448 Kbps\nChannel(s)                       : 6 channels\nChannel positions                : Front: L C R, Side: L R, LFE\nSampling rate                    : 48.0 KHz\nBit depth                        : 16 bits\nStream size                      : 277 MiB (25%)\nAlignment                        : Aligned on interleaves\nInterleave, duration             : 32 ms (0.80 video frame)\nInterleave, preload duration     : 1504 ms\n\n\n","torrent":{"xt":"urn:btih:8586862f9a6be54329c05c68611c24a3f77275fc","amp;dn":"The+Hit+List+2011+DVDrip+English+Klam","amp;tr":["udp%3A%2F%2Ftracker.openbittorrent.com%3A80","udp%3A%2F%2Fopen.demonii.com%3A1337","udp%3A%2F%2Ftracker.coppersurfer.tk%3A6969","udp%3A%2F%2Fexodus.desync.com%3A6969"],"infoHash":"8586862f9a6be54329c05c68611c24a3f77275fc","infoHashBuffer":{"type":"Buffer","data":[133,134,134,47,154,107,229,67,41,192,92,104,97,28,36,163,247,114,117,252]},"announce":[],"urlList":[]}}